# xmcd
#
# Track frame offsets:
#	150
#	15047
#	27782
#	41447
#	55325
#	68792
#	82867
#	96055
#	109057
#	123317
#	135760
#	149907
#	163452
#	175375
#	190555
#	204572
#	219160
#	232680
#	246152
#	257700
#	269847
#	282447
#	295652
#	309950
#	323532
#
# Disc length: 4477 seconds
#
# Revision: 1
# Processed by: cddbd v1.5.1PL0 Copyright (c) Steve Scherf et al.
# Submitted via: audiograbber 1.83.01
#
DISCID=58117b19
DTITLE=Female Blues Singers - Complete Recorded Works - 1997 - Vol 10 - H-I-J (
DTITLE=1923-1929) DOCD-5514
DYEAR=1997
DGENRE=Blues
TTITLE0=Midnight Blues
TTITLE1=Oh Daddy Blues
TTITLE2=Kissin' Mule Blues
TTITLE3=Peepin' Jim Blues
TTITLE4=Hard-Hearted Papa
TTITLE5=Graveyard Love
TTITLE6=You've Got The Right Eye, But You're Peeping
TTITLE7=Down On Pennsylvania Avenue
TTITLE8=Move It On Out Of Here
TTITLE9=I Don't Let No One Man Worry Me
TTITLE10=Liza Jackson's Got Better Bread Than Old Sally Lee
TTITLE11=Deceitful Blues
TTITLE12=If Anybody Here Wants A Real Kind Mama (Here's Your Opportunity)
TTITLE13=All The Time
TTITLE14=Who'll Get It When I'm Gone?
TTITLE15=Original Black Bottom Dance
TTITLE16=Nobody Worries 'Bout Me
TTITLE17=I'm Mad Because I Turned My Baby Down
TTITLE18=Something's Gonna Happen To You
TTITLE19=Georgia Grind
TTITLE20=Mamma Stayed Out The Whole Night Long (But Mamma Didn't Do No Wrong)
TTITLE21=Blue Black Bottom Blues
TTITLE22=Red Cap Porter Blues
TTITLE23=Freakish Papa
TTITLE24=I Like That Thing (Called The Black Bottom)
EXTD=Document Records, Austria
EXTT0=
EXTT1=
EXTT2=
EXTT3=
EXTT4=
EXTT5=
EXTT6=
EXTT7=
EXTT8=
EXTT9=
EXTT10=
EXTT11=
EXTT12=
EXTT13=
EXTT14=
EXTT15=
EXTT16=
EXTT17=
EXTT18=
EXTT19=
EXTT20=
EXTT21=
EXTT22=
EXTT23=
EXTT24=
PLAYORDER=
